<svg width="89" height="526" viewBox="0 0 89 526" fill="none" xmlns="http://www.w3.org/2000/svg">
<path d="M23.4138 471.482C24.4285 470.722 25.9031 470.662 27.5443 471.482L79.9926 497.393C83.0531 498.923 85.5343 502.938 85.5343 506.359C85.5343 508.041 84.9353 509.266 83.9629 509.896C82.9905 510.526 75.4577 514.797 74.6799 515.475C73.6637 516.361 72.116 516.477 70.3824 515.61L17.9342 489.699C14.8737 488.169 12.3927 484.155 12.3927 480.733C12.3927 479.146 12.9263 477.965 13.8037 477.308L23.4138 471.482Z" fill="#0B00B5"/>
<path fill-rule="evenodd" clip-rule="evenodd" d="M23.2042 385.096C24.2204 384.208 25.7693 384.091 27.5045 384.958L78.9576 410.685C82.6118 412.512 85.5742 417.305 85.5742 421.391V449.557C85.5741 461.427 82.417 468.4 77.2909 471.6L66.9771 477.835C66.2394 478.234 65.4646 478.56 64.6558 478.818C58.0942 480.906 50.1633 478.157 44.2108 475.181L17.8944 462.023C14.8338 460.492 12.3526 456.478 12.3526 453.056C12.3526 451.699 12.743 450.639 13.405 449.949L23.3739 443.805C24.3886 443.045 25.8632 442.985 27.5045 443.805L53.8209 456.964C57.04 458.573 60.382 459.786 63.3835 460.08C64.3075 457.702 64.8806 454.402 64.8806 449.841C64.8806 449.841 64.8806 435.897 64.8806 426.962C64.8806 426.745 64.7711 426.614 64.6095 426.533C46.3831 417.42 17.9475 403.202 17.8944 403.176C14.8338 401.645 12.3526 397.631 12.3526 394.209C12.3526 392.622 12.8862 391.441 13.7637 390.784L23.2042 385.096Z" fill="#0B00B5"/>
<path d="M23.2042 357.494C24.2194 356.574 25.7862 356.442 27.5443 357.321L79.9926 383.545C83.0531 385.076 85.5343 389.09 85.5343 392.512C85.5343 394.099 84.1232 395.937 84.1232 395.937C84.1232 395.937 75.3906 401.105 74.5131 401.763C73.4983 402.523 72.0237 402.583 70.3824 401.763L17.9342 375.539C14.8737 374.008 12.3927 369.994 12.3927 366.572C12.3927 365.221 12.7795 364.164 13.4361 363.474L23.2042 357.494Z" fill="#0B00B5"/>
<path fill-rule="evenodd" clip-rule="evenodd" d="M33.2927 282.542C39.8651 280.409 47.814 283.094 53.8129 286.094L54.3802 286.381C60.2989 289.421 67.9377 294.615 74.2841 303.045C81.1401 312.152 85.5661 323.796 85.5661 337.834V366.92C85.5661 368.506 85.627 369.362 84.2219 370.292C79.8401 373.194 74.3408 376.309 74.3408 376.309C73.3373 376.933 71.9486 376.935 70.4143 376.168C59.2352 370.579 52.2198 363.837 46.7577 355.616C45.9057 354.334 45.0591 352.897 44.4098 351.742C44.2686 351.491 44.0031 351.351 43.8604 351.467C43.1481 352.048 42.368 352.556 41.5187 352.984C35.9713 355.778 27.9718 354.918 17.8863 349.875C14.8257 348.345 12.3446 344.33 12.3446 340.909V311.854C12.3446 300.616 15.1955 293.759 19.8574 290.321C19.8574 290.321 29.0314 284.648 30.7152 283.681C31.5296 283.213 32.3903 282.834 33.2927 282.542ZM59.2923 330.507C59.293 334.911 60.753 339.728 63.7778 344.281C64.1164 344.79 64.4812 345.306 64.8725 345.825V337.613C64.785 328.314 62.2869 321.866 59.3155 317.299L59.2923 330.507ZM34.5838 301.232C33.6299 303.628 33.0381 306.959 33.0381 311.57V333.569C33.0382 334.038 33.4604 334.123 33.4604 334.123C35.1604 334.657 36.6768 334.965 38.0248 335.09C38.4087 333.812 38.5986 332.361 38.5986 330.776L38.6479 302.837C38.6479 302.331 38.3369 301.96 37.9668 301.86C36.8107 301.546 35.6755 301.328 34.5838 301.232Z" fill="#0B00B5"/>
<path fill-rule="evenodd" clip-rule="evenodd" d="M23.3656 189.901C24.3804 189.141 25.855 189.08 27.4962 189.901L78.9494 215.628C82.6035 217.455 85.5659 222.248 85.5659 226.333V254.5C85.5659 265.744 82.7327 272.594 78.0763 276.005L68.2403 282.097C68.2403 282.097 67.4367 282.872 64.6476 283.76C58.086 285.849 50.1552 283.1 44.2027 280.123L17.8861 266.965C14.8256 265.435 12.3444 261.42 12.3444 257.999C12.3444 256.561 12.7823 255.457 13.517 254.773L23.3656 248.748C24.3803 247.988 25.8549 247.927 27.4962 248.748L53.8129 261.906C57.032 263.516 60.3738 264.729 63.3752 265.022C64.2992 262.645 64.8723 259.344 64.8723 254.783V231.904C64.8723 231.687 64.763 231.557 64.6015 231.476L17.8861 208.118C14.8255 206.588 12.3444 202.573 12.3444 199.151C12.3444 197.66 12.8155 196.528 13.6005 195.851L23.3656 189.901ZM73.6237 225.356C73.9364 225.81 74.2239 226.283 74.4824 226.769V226.078C74.4824 225.862 74.3731 225.731 74.2116 225.65C74.0168 225.553 73.8208 225.455 73.6237 225.356Z" fill="#0B00B5"/>
<path fill-rule="evenodd" clip-rule="evenodd" d="M23.3859 25.5752C24.4007 24.8149 25.8753 24.7545 27.5166 25.5752L79.977 51.8054C83.0376 53.3357 85.5188 57.3502 85.5188 60.7721C85.5188 62.3589 84.9852 63.5396 84.1077 64.197L74.2361 70.1971C73.2374 70.7869 71.8723 70.7754 70.3669 70.0227L59.2287 64.4536V75.8061C59.2287 86.6767 62.4925 93.6445 66.02 98.2863C69.8698 103.352 75.067 107.008 79.977 109.463C83.0376 110.994 85.5187 115.008 85.5188 118.43C85.5188 120.017 84.9852 121.197 84.1077 121.855L74.4976 127.681C73.4829 128.441 72.0082 128.501 70.3669 127.681C68.6008 126.797 66.6611 125.721 64.6347 124.419C77.7316 136.013 87.1411 154.616 87.1411 170.973C87.1411 180.966 83.629 188.285 77.9097 192.126C77.9097 192.126 68.9665 197.632 67.1745 198.646C61.1835 202.034 53.0727 201.898 44.1431 197.433C25.7035 188.214 10.7552 164.027 10.7552 143.411C10.7553 134.093 13.8084 127.1 18.8571 123.084C20.9138 121.448 30.7916 115.698 30.7916 115.698C36.7758 112.35 44.8583 112.503 53.7532 116.95C55.042 117.595 56.3137 118.312 57.5645 119.096C54.9274 116.78 52.3081 114.055 49.8766 110.855C44.18 103.359 40.1584 94.1258 38.9299 83.2169C37.646 82.9487 36.41 82.8411 35.2351 82.8856C33.8426 85.3221 33.0583 88.4639 33.0583 92.1999C33.0583 93.9389 32.4174 95.1902 31.3853 95.7994L21.7987 101.611C20.798 102.215 19.4234 102.209 17.9064 101.45C14.8459 99.92 12.3647 95.9056 12.3647 92.4838C12.3647 83.2486 15.5113 76.3542 20.6858 72.5756C22.5912 71.1842 31.3853 66.0189 31.3853 66.0189C33.4969 64.7204 35.9019 63.8983 38.5352 63.5977V54.1068L17.9064 43.7925C14.8459 42.2622 12.3647 38.2476 12.3647 34.8258C12.3647 33.2389 12.8983 32.0582 13.7758 31.4008L23.3859 25.5752ZM44.1431 135.401C40.5466 133.603 37.1508 132.866 34.1498 133.07C32.558 135.686 31.6576 139.116 31.6576 143.231C31.6577 156.875 41.5502 172.881 53.7532 178.982C57.3498 180.781 60.7456 181.517 63.7466 181.313C65.3383 178.697 66.2387 175.267 66.2387 171.152C66.2387 157.509 56.3462 141.502 44.1431 135.401Z" fill="#0B00B5"/>
<path d="M48.7631 10.5999C50.019 9.76118 51.7877 9.73217 53.7472 10.7119C57.5573 12.617 60.646 17.6146 60.6461 21.8745C60.6461 23.8499 59.9818 25.3198 58.8895 26.1382C58.8895 26.1382 50.2485 31.4026 48.9783 32.1664C47.7329 32.9154 46.0234 32.9071 44.1371 31.9639C40.327 30.0588 37.2382 25.0612 37.2382 20.8013C37.2382 18.6386 38.0344 17.0818 39.3169 16.3225L48.7631 10.5999Z" fill="#0B00B5"/>
<path d="M23.4138 471.482C24.4285 470.722 25.9031 470.662 27.5443 471.482L79.9926 497.393C83.0531 498.923 85.5343 502.938 85.5343 506.359C85.5343 508.041 84.9353 509.266 83.9629 509.896C82.9905 510.526 75.4577 514.797 74.6799 515.475C73.6637 516.361 72.116 516.477 70.3824 515.61L17.9342 489.699C14.8737 488.169 12.3927 484.155 12.3927 480.733C12.3927 479.146 12.9263 477.965 13.8037 477.308L23.4138 471.482Z" stroke="#0B00B5" stroke-width="1.87122" stroke-linecap="square"/>
<path fill-rule="evenodd" clip-rule="evenodd" d="M23.2042 385.096C24.2204 384.208 25.7693 384.091 27.5045 384.958L78.9576 410.685C82.6118 412.512 85.5742 417.305 85.5742 421.391V449.557C85.5741 461.427 82.417 468.4 77.2909 471.6L66.9771 477.835C66.2394 478.234 65.4646 478.56 64.6558 478.818C58.0942 480.906 50.1633 478.157 44.2108 475.181L17.8944 462.023C14.8338 460.492 12.3526 456.478 12.3526 453.056C12.3526 451.699 12.743 450.639 13.405 449.949L23.3739 443.805C24.3886 443.045 25.8632 442.985 27.5045 443.805L53.8209 456.964C57.04 458.573 60.382 459.786 63.3835 460.08C64.3075 457.702 64.8806 454.402 64.8806 449.841C64.8806 449.841 64.8806 435.897 64.8806 426.962C64.8806 426.745 64.7711 426.614 64.6095 426.533C46.3831 417.42 17.9475 403.202 17.8944 403.176C14.8338 401.645 12.3526 397.631 12.3526 394.209C12.3526 392.622 12.8862 391.441 13.7637 390.784L23.2042 385.096Z" stroke="#0B00B5" stroke-width="1.87122" stroke-linecap="square"/>
<path d="M23.2042 357.494C24.2194 356.574 25.7862 356.442 27.5443 357.321L79.9926 383.545C83.0531 385.076 85.5343 389.09 85.5343 392.512C85.5343 394.099 84.1232 395.937 84.1232 395.937C84.1232 395.937 75.3906 401.105 74.5131 401.763C73.4983 402.523 72.0237 402.583 70.3824 401.763L17.9342 375.539C14.8737 374.008 12.3927 369.994 12.3927 366.572C12.3927 365.221 12.7795 364.164 13.4361 363.474L23.2042 357.494Z" stroke="#0B00B5" stroke-width="1.87122" stroke-linecap="square"/>
<path fill-rule="evenodd" clip-rule="evenodd" d="M33.2927 282.542C39.8651 280.409 47.814 283.094 53.8129 286.094L54.3802 286.381C60.2989 289.421 67.9377 294.615 74.2841 303.045C81.1401 312.152 85.5661 323.796 85.5661 337.834V366.92C85.5661 368.506 85.627 369.362 84.2219 370.292C79.8401 373.194 74.3408 376.309 74.3408 376.309C73.3373 376.933 71.9486 376.935 70.4143 376.168C59.2352 370.579 52.2198 363.837 46.7577 355.616C45.9057 354.334 45.0591 352.897 44.4098 351.742C44.2686 351.491 44.0031 351.351 43.8604 351.467C43.1481 352.048 42.368 352.556 41.5187 352.984C35.9713 355.778 27.9718 354.918 17.8863 349.875C14.8257 348.345 12.3446 344.33 12.3446 340.909V311.854C12.3446 300.616 15.1955 293.759 19.8574 290.321C19.8574 290.321 29.0314 284.648 30.7152 283.681C31.5296 283.213 32.3903 282.834 33.2927 282.542ZM59.2923 330.507C59.293 334.911 60.753 339.728 63.7778 344.281C64.1164 344.79 64.4812 345.306 64.8725 345.825V337.613C64.785 328.314 62.2869 321.866 59.3155 317.299L59.2923 330.507ZM34.5838 301.232C33.6299 303.628 33.0381 306.959 33.0381 311.57V333.569C33.0382 334.038 33.4604 334.123 33.4604 334.123C35.1604 334.657 36.6768 334.965 38.0248 335.09C38.4087 333.812 38.5986 332.361 38.5986 330.776L38.6479 302.837C38.6479 302.331 38.3369 301.96 37.9668 301.86C36.8107 301.546 35.6755 301.328 34.5838 301.232Z" stroke="#0B00B5" stroke-width="1.87122" stroke-linecap="square"/>
<path fill-rule="evenodd" clip-rule="evenodd" d="M23.3656 189.901C24.3804 189.141 25.855 189.08 27.4962 189.901L78.9494 215.628C82.6035 217.455 85.5659 222.248 85.5659 226.333V254.5C85.5659 265.744 82.7327 272.594 78.0763 276.005L68.2403 282.097C68.2403 282.097 67.4367 282.872 64.6476 283.76C58.086 285.849 50.1552 283.1 44.2027 280.123L17.8861 266.965C14.8256 265.435 12.3444 261.42 12.3444 257.999C12.3444 256.561 12.7823 255.457 13.517 254.773L23.3656 248.748C24.3803 247.988 25.8549 247.927 27.4962 248.748L53.8129 261.906C57.032 263.516 60.3738 264.729 63.3752 265.022C64.2992 262.645 64.8723 259.344 64.8723 254.783V231.904C64.8723 231.687 64.763 231.557 64.6015 231.476L17.8861 208.118C14.8255 206.588 12.3444 202.573 12.3444 199.151C12.3444 197.66 12.8155 196.528 13.6005 195.851L23.3656 189.901ZM73.6237 225.356C73.9364 225.81 74.2239 226.283 74.4824 226.769V226.078C74.4824 225.862 74.3731 225.731 74.2116 225.65C74.0168 225.553 73.8208 225.455 73.6237 225.356Z" stroke="#0B00B5" stroke-width="1.87122" stroke-linecap="square"/>
<path fill-rule="evenodd" clip-rule="evenodd" d="M23.3859 25.5752C24.4007 24.8149 25.8753 24.7545 27.5166 25.5752L79.977 51.8054C83.0376 53.3357 85.5188 57.3502 85.5188 60.7721C85.5188 62.3589 84.9852 63.5396 84.1077 64.197L74.2361 70.1971C73.2374 70.7869 71.8723 70.7754 70.3669 70.0227L59.2287 64.4536V75.8061C59.2287 86.6767 62.4925 93.6445 66.02 98.2863C69.8698 103.352 75.067 107.008 79.977 109.463C83.0376 110.994 85.5187 115.008 85.5188 118.43C85.5188 120.017 84.9852 121.197 84.1077 121.855L74.4976 127.681C73.4829 128.441 72.0082 128.501 70.3669 127.681C68.6008 126.797 66.6611 125.721 64.6347 124.419C77.7316 136.013 87.1411 154.616 87.1411 170.973C87.1411 180.966 83.629 188.285 77.9097 192.126C77.9097 192.126 68.9665 197.632 67.1745 198.646C61.1835 202.034 53.0727 201.898 44.1431 197.433C25.7035 188.214 10.7552 164.027 10.7552 143.411C10.7553 134.093 13.8084 127.1 18.8571 123.084C20.9138 121.448 30.7916 115.698 30.7916 115.698C36.7758 112.35 44.8583 112.503 53.7532 116.95C55.042 117.595 56.3137 118.312 57.5645 119.096C54.9274 116.78 52.3081 114.055 49.8766 110.855C44.18 103.359 40.1584 94.1258 38.9299 83.2169C37.646 82.9487 36.41 82.8411 35.2351 82.8856C33.8426 85.3221 33.0583 88.4639 33.0583 92.1999C33.0583 93.9389 32.4174 95.1902 31.3853 95.7994L21.7987 101.611C20.798 102.215 19.4234 102.209 17.9064 101.45C14.8459 99.92 12.3647 95.9056 12.3647 92.4838C12.3647 83.2486 15.5113 76.3542 20.6858 72.5756C22.5912 71.1842 31.3853 66.0189 31.3853 66.0189C33.4969 64.7204 35.9019 63.8983 38.5352 63.5977V54.1068L17.9064 43.7925C14.8459 42.2622 12.3647 38.2476 12.3647 34.8258C12.3647 33.2389 12.8983 32.0582 13.7758 31.4008L23.3859 25.5752ZM44.1431 135.401C40.5466 133.603 37.1508 132.866 34.1498 133.07C32.558 135.686 31.6576 139.116 31.6576 143.231C31.6577 156.875 41.5502 172.881 53.7532 178.982C57.3498 180.781 60.7456 181.517 63.7466 181.313C65.3383 178.697 66.2387 175.267 66.2387 171.152C66.2387 157.509 56.3462 141.502 44.1431 135.401Z" stroke="#0B00B5" stroke-width="1.87122" stroke-linecap="square"/>
<path d="M48.7631 10.5999C50.019 9.76118 51.7877 9.73217 53.7472 10.7119C57.5573 12.617 60.646 17.6146 60.6461 21.8745C60.6461 23.8499 59.9818 25.3198 58.8895 26.1382C58.8895 26.1382 50.2485 31.4026 48.9783 32.1664C47.7329 32.9154 46.0234 32.9071 44.1371 31.9639C40.327 30.0588 37.2382 25.0612 37.2382 20.8013C37.2382 18.6386 38.0344 17.0818 39.3169 16.3225L48.7631 10.5999Z" stroke="#0B00B5" stroke-width="1.87122" stroke-linecap="square"/>
<path d="M44.1371 32.1173C40.327 30.2123 37.2382 25.2146 37.2382 20.9547C37.2382 16.6948 40.327 14.7859 44.1371 16.6909C47.9473 18.596 51.036 23.5937 51.036 27.8536C51.036 32.1135 47.9473 34.0224 44.1371 32.1173Z" fill="#0B00B5"/>
<path d="M44.1431 184.962C56.3462 191.063 66.2388 184.949 66.2388 171.306C66.2388 157.662 56.3462 141.656 44.1431 135.554C31.9401 129.453 22.0475 135.567 22.0475 149.21C22.0475 162.854 31.9401 178.86 44.1431 184.962ZM44.1431 197.587C25.7035 188.367 10.7552 164.18 10.7552 143.564C10.7552 122.948 25.7035 113.709 44.1431 122.929C62.5828 132.149 77.531 156.336 77.531 176.952C77.531 197.568 62.5827 206.807 44.1431 197.587Z" fill="#0B00B5"/>
<path d="M70.3669 57.7845C73.4275 59.3148 75.9086 63.3293 75.9086 66.7511C75.9086 70.173 73.4275 71.7063 70.3669 70.176L49.6186 59.8019L49.6186 81.7851C49.6186 92.6557 52.8823 99.6235 56.4099 104.265C60.2597 109.331 65.4569 112.987 70.3669 115.442C73.4275 116.973 75.9086 120.987 75.9086 124.409C75.9086 127.831 73.4275 129.364 70.3669 127.834C64.4007 124.851 56.4527 119.662 49.8765 111.009C44.1799 103.513 40.1583 94.2793 38.9298 83.3703C30.0387 81.513 23.4482 87.3487 23.4481 98.1788C23.4481 101.601 20.9671 103.134 17.9065 101.604C14.8459 100.073 12.3648 96.059 12.3648 92.6372C12.3648 75.1817 23.6054 66.0878 38.5352 70.591V54.2602L17.9065 43.9458C14.8459 42.4155 12.3648 38.401 12.3648 34.9792C12.3648 31.5574 14.8459 30.024 17.9065 31.5542L70.3669 57.7845Z" fill="#0B00B5"/>
<path d="M17.8861 195.88C14.8255 194.35 12.3444 195.883 12.3444 199.305C12.3444 202.727 14.8255 206.741 17.8861 208.272C17.8861 208.272 46.358 222.507 64.6014 231.629C64.763 231.71 64.8724 231.841 64.8724 232.057C64.8724 240.992 64.8724 254.937 64.8724 254.937C64.8724 265.815 61.6153 269.523 58.1017 270.641C54.2686 271.862 49.0939 270.331 44.2027 267.885L17.8861 254.727C14.8255 253.197 12.3444 254.73 12.3444 258.152C12.3444 261.574 14.8255 265.588 17.8861 267.119L44.2027 280.277C50.1551 283.253 58.086 286.002 64.6477 283.914C71.5289 281.723 75.9557 274.534 75.9557 260.479V232.312C75.9557 228.227 72.9935 223.434 69.3393 221.607L17.8861 195.88Z" fill="#0B00B5"/>
<path d="M17.8943 390.937C14.8337 389.407 12.3526 390.941 12.3526 394.362C12.3526 397.784 14.8337 401.799 17.8943 403.329C17.8943 403.329 46.3661 417.565 64.6096 426.687C64.7711 426.767 64.8806 426.898 64.8806 427.115C64.8806 436.05 64.8806 449.994 64.8806 449.994C64.8806 460.872 61.6234 464.581 58.1099 465.699C54.2768 466.919 49.1021 465.388 44.2108 462.943L17.8943 449.784C14.8337 448.254 12.3526 449.788 12.3526 453.209C12.3526 456.631 14.8337 460.646 17.8943 462.176L44.2108 475.334C50.1633 478.311 58.0942 481.06 64.6558 478.971C71.5371 476.781 75.9639 469.592 75.9639 455.536V427.37C75.9639 423.284 73.0017 418.491 69.3475 416.664C49.2538 406.617 37.988 400.984 17.8943 390.937Z" fill="#0B00B5"/>
<path d="M75.9559 372.899C75.9559 376.321 73.4748 377.852 70.4142 376.322C59.2352 370.732 52.2198 363.991 46.7577 355.769C45.9057 354.487 45.0591 353.051 44.4097 351.896C44.2685 351.644 44.003 351.505 43.8603 351.621C43.148 352.201 42.3679 352.71 41.5186 353.137C35.9712 355.931 27.9718 355.072 17.8863 350.029C14.8256 348.498 12.3446 344.484 12.3446 341.062L12.3446 312.008C12.3446 297.957 16.8016 290.754 23.6826 288.521C30.255 286.388 38.204 289.074 44.2028 292.073L44.77 292.36C50.6887 295.4 58.3275 300.594 64.6739 309.024C71.5299 318.131 75.9559 329.776 75.9559 343.813V372.899ZM38.6479 302.99C38.6479 302.485 38.337 302.114 37.9669 302.013C35.1686 301.253 32.4922 301.058 30.2607 301.783C26.6988 302.938 23.428 306.706 23.428 317.549C23.428 317.549 23.428 339.078 23.428 339.548C23.428 340.017 23.8503 340.102 23.8503 340.102C28.589 341.59 31.9023 341.329 34.1147 340.214C37.1378 338.692 38.5985 335.331 38.5985 330.929L38.6479 302.99ZM64.8726 337.767C64.7731 327.197 61.5593 320.309 58.0759 315.682C55.8708 312.753 53.2268 310.291 50.4571 308.267C50.1019 308.007 49.7315 307.983 49.7315 308.532L49.6821 336.486C49.6828 340.89 51.1429 345.707 54.1678 350.26C56.4034 353.625 59.7633 357.243 64.5848 360.526C64.6802 360.591 64.8726 360.608 64.8726 360.342L64.8726 337.767Z" fill="#0B00B5"/>
<path d="M17.9343 375.692C14.8737 374.162 12.3926 370.147 12.3926 366.725C12.3926 363.304 14.8737 361.77 17.9343 363.301L70.3824 389.525C73.443 391.055 75.9241 395.069 75.9241 398.491C75.9241 401.913 73.443 403.446 70.3824 401.916L17.9343 375.692Z" fill="#0B00B5"/>
<path d="M17.9343 489.853C14.8737 488.323 12.3926 484.308 12.3926 480.886C12.3926 477.464 14.8737 475.931 17.9343 477.461L70.3824 503.685C73.443 505.216 75.9241 509.23 75.9241 512.652C75.9241 516.074 73.443 517.607 70.3824 516.077L17.9343 489.853Z" fill="#0B00B5"/>
<path d="M44.1371 32.1173C40.327 30.2123 37.2382 25.2146 37.2382 20.9547C37.2382 16.6948 40.327 14.7859 44.1371 16.6909C47.9473 18.596 51.036 23.5937 51.036 27.8536C51.036 32.1135 47.9473 34.0224 44.1371 32.1173Z" stroke="#0B00B5" stroke-width="1.87122" stroke-linecap="square"/>
<path d="M44.1431 184.962C56.3462 191.063 66.2388 184.949 66.2388 171.306C66.2388 157.662 56.3462 141.656 44.1431 135.554C31.9401 129.453 22.0475 135.567 22.0475 149.21C22.0475 162.854 31.9401 178.86 44.1431 184.962ZM44.1431 197.587C25.7035 188.367 10.7552 164.18 10.7552 143.564C10.7552 122.948 25.7035 113.709 44.1431 122.929C62.5828 132.149 77.531 156.336 77.531 176.952C77.531 197.568 62.5827 206.807 44.1431 197.587Z" stroke="#0B00B5" stroke-width="1.87122" stroke-linecap="square"/>
<path d="M70.3669 57.7845C73.4275 59.3148 75.9086 63.3293 75.9086 66.7511C75.9086 70.173 73.4275 71.7063 70.3669 70.176L49.6186 59.8019L49.6186 81.7851C49.6186 92.6557 52.8823 99.6235 56.4099 104.265C60.2597 109.331 65.4569 112.987 70.3669 115.442C73.4275 116.973 75.9086 120.987 75.9086 124.409C75.9086 127.831 73.4275 129.364 70.3669 127.834C64.4007 124.851 56.4527 119.662 49.8765 111.009C44.1799 103.513 40.1583 94.2793 38.9298 83.3703C30.0387 81.513 23.4482 87.3487 23.4481 98.1788C23.4481 101.601 20.9671 103.134 17.9065 101.604C14.8459 100.073 12.3648 96.059 12.3648 92.6372C12.3648 75.1817 23.6054 66.0878 38.5352 70.591V54.2602L17.9065 43.9458C14.8459 42.4155 12.3648 38.401 12.3648 34.9792C12.3648 31.5574 14.8459 30.024 17.9065 31.5542L70.3669 57.7845Z" stroke="#0B00B5" stroke-width="1.87122" stroke-linecap="square"/>
<path d="M17.8861 195.88C14.8255 194.35 12.3444 195.883 12.3444 199.305C12.3444 202.727 14.8255 206.741 17.8861 208.272C17.8861 208.272 46.358 222.507 64.6014 231.629C64.763 231.71 64.8724 231.841 64.8724 232.057C64.8724 240.992 64.8724 254.937 64.8724 254.937C64.8724 265.815 61.6153 269.523 58.1017 270.641C54.2686 271.862 49.0939 270.331 44.2027 267.885L17.8861 254.727C14.8255 253.197 12.3444 254.73 12.3444 258.152C12.3444 261.574 14.8255 265.588 17.8861 267.119L44.2027 280.277C50.1551 283.253 58.086 286.002 64.6477 283.914C71.5289 281.723 75.9557 274.534 75.9557 260.479V232.312C75.9557 228.227 72.9935 223.434 69.3393 221.607L17.8861 195.88Z" stroke="#0B00B5" stroke-width="1.87122" stroke-linecap="square"/>
<path d="M17.8943 390.937C14.8337 389.407 12.3526 390.941 12.3526 394.362C12.3526 397.784 14.8337 401.799 17.8943 403.329C17.8943 403.329 46.3661 417.565 64.6096 426.687C64.7711 426.767 64.8806 426.898 64.8806 427.115C64.8806 436.05 64.8806 449.994 64.8806 449.994C64.8806 460.872 61.6234 464.581 58.1099 465.699C54.2768 466.919 49.1021 465.388 44.2108 462.943L17.8943 449.784C14.8337 448.254 12.3526 449.788 12.3526 453.209C12.3526 456.631 14.8337 460.646 17.8943 462.176L44.2108 475.334C50.1633 478.311 58.0942 481.06 64.6558 478.971C71.5371 476.781 75.9639 469.592 75.9639 455.536V427.37C75.9639 423.284 73.0017 418.491 69.3475 416.664C49.2538 406.617 37.988 400.984 17.8943 390.937Z" stroke="#0B00B5" stroke-width="1.87122" stroke-linecap="square"/>
<path d="M75.9559 372.899C75.9559 376.321 73.4748 377.852 70.4142 376.322C59.2352 370.732 52.2198 363.991 46.7577 355.769C45.9057 354.487 45.0591 353.051 44.4097 351.896C44.2685 351.644 44.003 351.505 43.8603 351.621C43.148 352.201 42.3679 352.71 41.5186 353.137C35.9712 355.931 27.9718 355.072 17.8863 350.029C14.8256 348.498 12.3446 344.484 12.3446 341.062L12.3446 312.008C12.3446 297.957 16.8016 290.754 23.6826 288.521C30.255 286.388 38.204 289.074 44.2028 292.073L44.77 292.36C50.6887 295.4 58.3275 300.594 64.6739 309.024C71.5299 318.131 75.9559 329.776 75.9559 343.813V372.899ZM38.6479 302.99C38.6479 302.485 38.337 302.114 37.9669 302.013C35.1686 301.253 32.4922 301.058 30.2607 301.783C26.6988 302.938 23.428 306.706 23.428 317.549C23.428 317.549 23.428 339.078 23.428 339.548C23.428 340.017 23.8503 340.102 23.8503 340.102C28.589 341.59 31.9023 341.329 34.1147 340.214C37.1378 338.692 38.5985 335.331 38.5985 330.929L38.6479 302.99ZM64.8726 337.767C64.7731 327.197 61.5593 320.309 58.0759 315.682C55.8708 312.753 53.2268 310.291 50.4571 308.267C50.1019 308.007 49.7315 307.983 49.7315 308.532L49.6821 336.486C49.6828 340.89 51.1429 345.707 54.1678 350.26C56.4034 353.625 59.7633 357.243 64.5848 360.526C64.6802 360.591 64.8726 360.608 64.8726 360.342L64.8726 337.767Z" stroke="#0B00B5" stroke-width="1.87122" stroke-linecap="square"/>
<path d="M17.9343 375.692C14.8737 374.162 12.3926 370.147 12.3926 366.725C12.3926 363.304 14.8737 361.77 17.9343 363.301L70.3824 389.525C73.443 391.055 75.9241 395.069 75.9241 398.491C75.9241 401.913 73.443 403.446 70.3824 401.916L17.9343 375.692Z" stroke="#0B00B5" stroke-width="1.87122" stroke-linecap="square"/>
<path d="M17.9343 489.853C14.8737 488.323 12.3926 484.308 12.3926 480.886C12.3926 477.464 14.8737 475.931 17.9343 477.461L70.3824 503.685C73.443 505.216 75.9241 509.23 75.9241 512.652C75.9241 516.074 73.443 517.607 70.3824 516.077L17.9343 489.853Z" stroke="#0B00B5" stroke-width="1.87122" stroke-linecap="square"/>
<path d="M13.5943 477.83C14.6089 477.07 16.0835 477.009 17.7248 477.83L70.173 503.741C73.2336 505.271 75.7147 509.285 75.7147 512.707C75.7147 514.388 75.1157 515.614 74.1433 516.244C73.1709 516.874 65.6382 521.145 64.8603 521.823C63.8441 522.708 62.2965 522.825 60.5629 521.958L8.11466 496.047C5.05408 494.517 2.57314 490.502 2.57313 487.08C2.57313 485.494 3.10668 484.313 3.98415 483.655L13.5943 477.83Z" fill="white"/>
<path fill-rule="evenodd" clip-rule="evenodd" d="M13.3846 391.443C14.4008 390.556 15.9497 390.438 17.6849 391.306L69.1381 417.033C72.7922 418.86 75.7546 423.653 75.7546 427.738V455.905C75.7545 467.774 72.5974 474.747 67.4713 477.948L57.1575 484.183C56.4198 484.582 55.645 484.908 54.8363 485.165C48.2746 487.254 40.3437 484.505 34.3912 481.529L8.07478 468.37C5.01419 466.84 2.53306 462.825 2.53306 459.404C2.53307 458.046 2.92341 456.986 3.58541 456.297L13.5543 450.153C14.569 449.393 16.0436 449.332 17.6849 450.153L44.0013 463.311C47.2205 464.921 50.5625 466.134 53.5639 466.427C54.4879 464.05 55.061 460.749 55.061 456.189C55.061 456.189 55.061 442.244 55.061 433.309C55.061 433.093 54.9515 432.962 54.7899 432.881C36.5635 423.768 8.12793 409.55 8.07478 409.523C5.01419 407.993 2.53306 403.978 2.53306 400.557C2.53306 398.97 3.06663 397.789 3.94412 397.132L13.3846 391.443Z" fill="white"/>
<path d="M13.3846 363.842C14.3998 362.922 15.9667 362.79 17.7248 363.669L70.173 389.893C73.2336 391.423 75.7147 395.438 75.7147 398.86C75.7147 400.447 74.3036 402.285 74.3036 402.285C74.3036 402.285 65.571 407.453 64.6935 408.11C63.6788 408.871 62.2041 408.931 60.5629 408.11L8.11466 381.886C5.05409 380.356 2.57315 376.342 2.57313 372.92C2.57313 371.569 2.95996 370.512 3.61655 369.822L13.3846 363.842Z" fill="white"/>
<path fill-rule="evenodd" clip-rule="evenodd" d="M23.4731 288.889C30.0455 286.757 37.9945 289.442 43.9933 292.442L44.5606 292.729C50.4793 295.769 58.1181 300.963 64.4645 309.393C71.3205 318.5 75.7465 330.144 75.7465 344.182V373.268C75.7465 374.853 75.8075 375.709 74.4023 376.64C70.0205 379.541 64.5213 382.657 64.5213 382.657C63.5178 383.281 62.129 383.283 60.5947 382.516C49.4156 376.926 42.4002 370.185 36.9381 361.964C36.0862 360.681 35.2396 359.245 34.5902 358.09C34.449 357.839 34.1835 357.699 34.0408 357.815C33.3285 358.396 32.5484 358.904 31.6991 359.332C26.1517 362.126 18.1522 361.266 8.06673 356.223C5.0061 354.693 2.525 350.678 2.525 347.256V318.202C2.525 306.964 5.37595 300.107 10.0378 296.669C10.0378 296.669 19.2118 290.996 20.8956 290.028C21.71 289.56 22.5707 289.182 23.4731 288.889ZM49.4728 336.855C49.4734 341.258 50.9334 346.075 53.9582 350.628C54.2968 351.138 54.6616 351.653 55.053 352.172V343.961C54.9654 334.662 52.4673 328.213 49.4959 323.646L49.4728 336.855ZM24.7642 307.58C23.8103 309.975 23.2186 313.307 23.2186 317.918V339.916C23.2186 340.386 23.6409 340.471 23.6409 340.471C25.3408 341.004 26.8572 341.313 28.2053 341.438C28.5891 340.159 28.779 338.709 28.779 337.123L28.8284 309.185C28.8284 308.679 28.5173 308.308 28.1473 308.207C26.9912 307.893 25.8559 307.676 24.7642 307.58Z" fill="white"/>
<path fill-rule="evenodd" clip-rule="evenodd" d="M13.5461 196.248C14.5608 195.488 16.0354 195.428 17.6766 196.248L69.1298 221.975C72.7839 223.802 75.7463 228.595 75.7463 232.681V260.847C75.7463 272.092 72.9131 278.941 68.2568 282.353L58.4207 288.444C58.4207 288.444 57.6171 289.22 54.828 290.108C48.2664 292.196 40.3356 289.447 34.3832 286.471L8.06652 273.313C5.00597 271.782 2.52484 267.768 2.5248 264.346C2.5248 262.909 2.96268 261.805 3.69744 261.121L13.546 255.096C14.5607 254.335 16.0354 254.275 17.6766 255.096L43.9933 268.254C47.2124 269.863 50.5542 271.076 53.5557 271.37C54.4797 268.992 55.0527 265.692 55.0528 261.131V238.252C55.0528 238.035 54.9434 237.904 54.7819 237.823L8.06652 214.466C5.00594 212.935 2.5248 208.921 2.5248 205.499C2.52482 204.008 2.99597 202.875 3.78089 202.199L13.5461 196.248ZM63.8042 231.704C64.1168 232.157 64.4044 232.63 64.6629 233.116V232.426C64.6629 232.209 64.5535 232.078 64.392 231.998C64.1972 231.9 64.0012 231.802 63.8042 231.704Z" fill="white"/>
<path fill-rule="evenodd" clip-rule="evenodd" d="M13.5664 31.9228C14.5811 31.1626 16.0557 31.1022 17.697 31.9228L70.1575 58.153C73.218 59.6833 75.6992 63.6979 75.6992 67.1197C75.6992 68.7066 75.1656 69.8873 74.2881 70.5447L64.4166 76.5447C63.4179 77.1345 62.0527 77.123 60.5474 76.3704L49.4091 70.8013V82.1537C49.4091 93.0243 52.6729 99.9921 56.2004 104.634C60.0502 109.7 65.2475 113.356 70.1575 115.811C73.218 117.341 75.6991 121.356 75.6992 124.778C75.6992 126.364 75.1656 127.545 74.2881 128.203L64.678 134.028C63.6633 134.788 62.1886 134.849 60.5474 134.028C58.7813 133.145 56.8415 132.069 54.8151 130.767C67.912 142.36 77.3215 160.964 77.3215 177.32C77.3215 187.313 73.8095 194.633 68.0901 198.473C68.0901 198.473 59.147 203.98 57.3549 204.993C51.3639 208.382 43.2532 208.246 34.3236 203.781C15.8839 194.561 0.935668 170.374 0.935669 149.758C0.935676 140.441 3.98881 133.448 9.03753 129.432C11.0942 127.796 20.9721 122.046 20.9721 122.046C26.9562 118.698 35.0388 118.85 43.9337 123.298C45.2224 123.942 46.4941 124.66 47.7449 125.444C45.1078 123.128 42.4885 120.402 40.057 117.203C34.3604 109.707 30.3388 100.473 29.1103 89.5645C27.8264 89.2963 26.5905 89.1888 25.4155 89.2332C24.023 91.6698 23.2387 94.8115 23.2387 98.5475C23.2387 100.287 22.5978 101.538 21.5657 102.147L11.9791 107.959C10.9784 108.562 9.60381 108.556 8.08686 107.798C5.02632 106.268 2.54517 102.253 2.54514 98.8315C2.54517 89.5963 5.69168 82.7019 10.8662 78.9232C12.7717 77.5319 21.5657 72.3665 21.5657 72.3665C23.6773 71.0681 26.0823 70.246 28.7156 69.9454V60.4545L8.08686 50.1401C5.02628 48.6098 2.54514 44.5953 2.54514 41.1734C2.54515 39.5866 3.07873 38.4059 3.95624 37.7485L13.5664 31.9228ZM34.3236 141.749C30.727 139.95 27.3312 139.213 24.3302 139.417C22.7384 142.034 21.8381 145.464 21.8381 149.579C21.8381 163.222 31.7306 179.229 43.9337 185.33C47.5302 187.128 50.926 187.865 53.927 187.661C55.5188 185.045 56.4191 181.615 56.4192 177.5C56.4192 163.857 46.5266 147.85 34.3236 141.749Z" fill="white"/>
<path d="M38.9436 16.9476C40.1994 16.1088 41.9681 16.0798 43.9276 17.0596C47.7378 18.9646 50.8265 23.9623 50.8265 28.2222C50.8265 30.1976 50.1623 31.6675 49.0699 32.4859C49.0699 32.4859 40.4289 37.7503 39.1587 38.5141C37.9133 39.2631 36.2038 39.2547 34.3175 38.3116C30.5074 36.4065 27.4187 31.4088 27.4187 27.149C27.4187 24.9862 28.2148 23.4295 29.4973 22.6701L38.9436 16.9476Z" fill="white"/>
<path d="M13.5943 477.83C14.6089 477.07 16.0835 477.009 17.7248 477.83L70.173 503.741C73.2336 505.271 75.7147 509.285 75.7147 512.707C75.7147 514.388 75.1157 515.614 74.1433 516.244C73.1709 516.874 65.6382 521.145 64.8603 521.823C63.8441 522.708 62.2965 522.825 60.5629 521.958L8.11466 496.047C5.05408 494.517 2.57314 490.502 2.57313 487.08C2.57313 485.494 3.10668 484.313 3.98415 483.655L13.5943 477.83Z" stroke="#0B00B5" stroke-width="1.87122" stroke-linecap="square"/>
<path fill-rule="evenodd" clip-rule="evenodd" d="M13.3846 391.443C14.4008 390.556 15.9497 390.438 17.6849 391.306L69.1381 417.033C72.7922 418.86 75.7546 423.653 75.7546 427.738V455.905C75.7545 467.774 72.5974 474.747 67.4713 477.948L57.1575 484.183C56.4198 484.582 55.645 484.908 54.8363 485.165C48.2746 487.254 40.3437 484.505 34.3912 481.529L8.07478 468.37C5.01419 466.84 2.53306 462.825 2.53306 459.404C2.53307 458.046 2.92341 456.986 3.58541 456.297L13.5543 450.153C14.569 449.393 16.0436 449.332 17.6849 450.153L44.0013 463.311C47.2205 464.921 50.5625 466.134 53.5639 466.427C54.4879 464.05 55.061 460.749 55.061 456.189C55.061 456.189 55.061 442.244 55.061 433.309C55.061 433.093 54.9515 432.962 54.7899 432.881C36.5635 423.768 8.12793 409.55 8.07478 409.523C5.01419 407.993 2.53306 403.978 2.53306 400.557C2.53306 398.97 3.06663 397.789 3.94412 397.132L13.3846 391.443Z" stroke="#0B00B5" stroke-width="1.87122" stroke-linecap="square"/>
<path d="M13.3846 363.842C14.3998 362.922 15.9667 362.79 17.7248 363.669L70.173 389.893C73.2336 391.423 75.7147 395.438 75.7147 398.86C75.7147 400.447 74.3036 402.285 74.3036 402.285C74.3036 402.285 65.571 407.453 64.6935 408.11C63.6788 408.871 62.2041 408.931 60.5629 408.11L8.11466 381.886C5.05409 380.356 2.57315 376.342 2.57313 372.92C2.57313 371.569 2.95996 370.512 3.61655 369.822L13.3846 363.842Z" stroke="#0B00B5" stroke-width="1.87122" stroke-linecap="square"/>
<path fill-rule="evenodd" clip-rule="evenodd" d="M23.4731 288.889C30.0455 286.757 37.9945 289.442 43.9933 292.442L44.5606 292.729C50.4793 295.769 58.1181 300.963 64.4645 309.393C71.3205 318.5 75.7465 330.144 75.7465 344.182V373.268C75.7465 374.853 75.8075 375.709 74.4023 376.64C70.0205 379.541 64.5213 382.657 64.5213 382.657C63.5178 383.281 62.129 383.283 60.5947 382.516C49.4156 376.926 42.4002 370.185 36.9381 361.964C36.0862 360.681 35.2396 359.245 34.5902 358.09C34.449 357.839 34.1835 357.699 34.0408 357.815C33.3285 358.396 32.5484 358.904 31.6991 359.332C26.1517 362.126 18.1522 361.266 8.06673 356.223C5.0061 354.693 2.525 350.678 2.525 347.256V318.202C2.525 306.964 5.37595 300.107 10.0378 296.669C10.0378 296.669 19.2118 290.996 20.8956 290.028C21.71 289.56 22.5707 289.182 23.4731 288.889ZM49.4728 336.855C49.4734 341.258 50.9334 346.075 53.9582 350.628C54.2968 351.138 54.6616 351.653 55.053 352.172V343.961C54.9654 334.662 52.4673 328.213 49.4959 323.646L49.4728 336.855ZM24.7642 307.58C23.8103 309.975 23.2186 313.307 23.2186 317.918V339.916C23.2186 340.386 23.6409 340.471 23.6409 340.471C25.3408 341.004 26.8572 341.313 28.2053 341.438C28.5891 340.159 28.779 338.709 28.779 337.123L28.8284 309.185C28.8284 308.679 28.5173 308.308 28.1473 308.207C26.9912 307.893 25.8559 307.676 24.7642 307.58Z" stroke="#0B00B5" stroke-width="1.87122" stroke-linecap="square"/>
<path fill-rule="evenodd" clip-rule="evenodd" d="M13.5461 196.248C14.5608 195.488 16.0354 195.428 17.6766 196.248L69.1298 221.975C72.7839 223.802 75.7463 228.595 75.7463 232.681V260.847C75.7463 272.092 72.9131 278.941 68.2568 282.353L58.4207 288.444C58.4207 288.444 57.6171 289.22 54.828 290.108C48.2664 292.196 40.3356 289.447 34.3832 286.471L8.06652 273.313C5.00597 271.782 2.52484 267.768 2.5248 264.346C2.5248 262.909 2.96268 261.805 3.69744 261.121L13.546 255.096C14.5607 254.335 16.0354 254.275 17.6766 255.096L43.9933 268.254C47.2124 269.863 50.5542 271.076 53.5557 271.37C54.4797 268.992 55.0527 265.692 55.0528 261.131V238.252C55.0528 238.035 54.9434 237.904 54.7819 237.823L8.06652 214.466C5.00594 212.935 2.5248 208.921 2.5248 205.499C2.52482 204.008 2.99597 202.875 3.78089 202.199L13.5461 196.248ZM63.8042 231.704C64.1168 232.157 64.4044 232.63 64.6629 233.116V232.426C64.6629 232.209 64.5535 232.078 64.392 231.998C64.1972 231.9 64.0012 231.802 63.8042 231.704Z" stroke="#0B00B5" stroke-width="1.87122" stroke-linecap="square"/>
<path fill-rule="evenodd" clip-rule="evenodd" d="M13.5664 31.9228C14.5811 31.1626 16.0557 31.1022 17.697 31.9228L70.1575 58.153C73.218 59.6833 75.6992 63.6979 75.6992 67.1197C75.6992 68.7066 75.1656 69.8873 74.2881 70.5447L64.4166 76.5447C63.4179 77.1345 62.0527 77.123 60.5474 76.3704L49.4091 70.8013V82.1537C49.4091 93.0243 52.6729 99.9921 56.2004 104.634C60.0502 109.7 65.2475 113.356 70.1575 115.811C73.218 117.341 75.6991 121.356 75.6992 124.778C75.6992 126.364 75.1656 127.545 74.2881 128.203L64.678 134.028C63.6633 134.788 62.1886 134.849 60.5474 134.028C58.7813 133.145 56.8415 132.069 54.8151 130.767C67.912 142.36 77.3215 160.964 77.3215 177.32C77.3215 187.313 73.8095 194.633 68.0901 198.473C68.0901 198.473 59.147 203.98 57.3549 204.993C51.3639 208.382 43.2532 208.246 34.3236 203.781C15.8839 194.561 0.935668 170.374 0.935669 149.758C0.935676 140.441 3.98881 133.448 9.03753 129.432C11.0942 127.796 20.9721 122.046 20.9721 122.046C26.9562 118.698 35.0388 118.85 43.9337 123.298C45.2224 123.942 46.4941 124.66 47.7449 125.444C45.1078 123.128 42.4885 120.402 40.057 117.203C34.3604 109.707 30.3388 100.473 29.1103 89.5645C27.8264 89.2963 26.5905 89.1888 25.4155 89.2332C24.023 91.6698 23.2387 94.8115 23.2387 98.5475C23.2387 100.287 22.5978 101.538 21.5657 102.147L11.9791 107.959C10.9784 108.562 9.60381 108.556 8.08686 107.798C5.02632 106.268 2.54517 102.253 2.54514 98.8315C2.54517 89.5963 5.69168 82.7019 10.8662 78.9232C12.7717 77.5319 21.5657 72.3665 21.5657 72.3665C23.6773 71.0681 26.0823 70.246 28.7156 69.9454V60.4545L8.08686 50.1401C5.02628 48.6098 2.54514 44.5953 2.54514 41.1734C2.54515 39.5866 3.07873 38.4059 3.95624 37.7485L13.5664 31.9228ZM34.3236 141.749C30.727 139.95 27.3312 139.213 24.3302 139.417C22.7384 142.034 21.8381 145.464 21.8381 149.579C21.8381 163.222 31.7306 179.229 43.9337 185.33C47.5302 187.128 50.926 187.865 53.927 187.661C55.5188 185.045 56.4191 181.615 56.4192 177.5C56.4192 163.857 46.5266 147.85 34.3236 141.749Z" stroke="#0B00B5" stroke-width="1.87122" stroke-linecap="square"/>
<path d="M38.9436 16.9476C40.1994 16.1088 41.9681 16.0798 43.9276 17.0596C47.7378 18.9646 50.8265 23.9623 50.8265 28.2222C50.8265 30.1976 50.1623 31.6675 49.0699 32.4859C49.0699 32.4859 40.4289 37.7503 39.1587 38.5141C37.9133 39.2631 36.2038 39.2547 34.3175 38.3116C30.5074 36.4065 27.4187 31.4088 27.4187 27.149C27.4187 24.9862 28.2148 23.4295 29.4973 22.6701L38.9436 16.9476Z" stroke="#0B00B5" stroke-width="1.87122" stroke-linecap="square"/>
<path d="M34.3174 38.466C30.5073 36.5609 27.4185 31.5632 27.4185 27.3033C27.4185 23.0434 30.5073 21.1345 34.3174 23.0396C38.1276 24.9447 41.2163 29.9423 41.2163 34.2022C41.2163 38.4621 38.1276 40.371 34.3174 38.466Z" fill="white"/>
<path d="M34.3234 191.31C46.5265 197.412 56.4191 191.298 56.4191 177.654C56.4191 164.011 46.5265 148.004 34.3234 141.903C22.1204 135.801 12.2278 141.915 12.2278 155.559C12.2278 169.202 22.1204 185.209 34.3234 191.31ZM34.3234 203.935C15.8838 194.716 0.935546 170.529 0.935547 149.913C0.935548 129.296 15.8838 120.058 34.3234 129.278C52.7631 138.498 67.7113 162.684 67.7113 183.301C67.7113 203.917 52.763 213.155 34.3234 203.935Z" fill="white"/>
<path d="M60.5472 64.1331C63.6078 65.6634 66.0889 69.6779 66.0889 73.0997C66.0889 76.5216 63.6078 78.055 60.5472 76.5247L39.7989 66.1505L39.7989 88.1337C39.7989 99.0043 43.0626 105.972 46.5902 110.614C50.44 115.68 55.6372 119.336 60.5472 121.791C63.6078 123.321 66.0889 127.336 66.0889 130.758C66.0889 134.18 63.6078 135.713 60.5472 134.183C54.581 131.2 46.633 126.011 40.0568 117.357C34.3602 109.861 30.3386 100.628 29.1101 89.7189C20.219 87.8616 13.6285 93.6974 13.6284 104.527C13.6284 107.949 11.1474 109.483 8.08676 107.952C5.02618 106.422 2.54508 102.408 2.54508 98.9858C2.54513 81.5303 13.7857 72.4364 28.7155 76.9396V60.6088L8.08677 50.2945C5.02618 48.7642 2.54509 44.7497 2.54509 41.3278C2.54509 37.906 5.02618 36.3726 8.08677 37.9029L60.5472 64.1331Z" fill="white"/>
<path d="M8.06639 202.229C5.00581 200.698 2.52471 202.232 2.52471 205.654C2.52471 209.075 5.00581 213.09 8.0664 214.62C8.0664 214.62 36.5383 228.856 54.7817 237.978C54.9433 238.059 55.0527 238.189 55.0527 238.406C55.0527 247.341 55.0527 261.286 55.0527 261.286C55.0527 272.163 51.7955 275.872 48.282 276.99C44.4489 278.21 39.2742 276.68 34.3829 274.234L8.0664 261.076C5.00582 259.545 2.52471 261.079 2.52471 264.501C2.52471 267.922 5.00581 271.937 8.0664 273.467L34.3829 286.625C40.3354 289.602 48.2663 292.351 54.828 290.262C61.7092 288.072 66.136 280.883 66.136 266.827V238.661C66.136 234.575 63.1738 229.782 59.5196 227.955L8.06639 202.229Z" fill="white"/>
<path d="M8.07458 397.286C5.01399 395.756 2.5329 397.289 2.5329 400.711C2.5329 404.133 5.014 408.147 8.07458 409.678C8.07458 409.678 36.5464 423.914 54.7899 433.035C54.9514 433.116 55.0609 433.247 55.0609 433.464C55.0609 442.399 55.0609 456.343 55.0609 456.343C55.0609 467.221 51.8037 470.929 48.2902 472.048C44.4571 473.268 39.2824 471.737 34.3911 469.291L8.07459 456.133C5.014 454.603 2.53289 456.136 2.53289 459.558C2.53289 462.98 5.01399 466.994 8.07458 468.525L34.3911 481.683C40.3436 484.659 48.2745 487.409 54.8361 485.32C61.7174 483.13 66.1442 475.94 66.1442 461.885V433.718C66.1442 429.633 63.182 424.84 59.5278 423.013C39.4341 412.966 28.1683 407.333 8.07458 397.286Z" fill="white"/>
<path d="M66.1362 379.248C66.1362 382.67 63.6551 384.201 60.5945 382.67C49.4155 377.081 42.4001 370.339 36.938 362.118C36.086 360.836 35.2394 359.399 34.59 358.244C34.4488 357.993 34.1833 357.853 34.0406 357.969C33.3283 358.55 32.5482 359.058 31.6989 359.486C26.1515 362.28 18.1521 361.42 8.06658 356.378C5.00594 354.847 2.52489 350.832 2.52489 347.411L2.52489 318.356C2.52489 304.305 6.98186 297.102 13.8629 294.869C20.4353 292.736 28.3843 295.422 34.3831 298.422L34.9503 298.709C40.869 301.749 48.5077 306.943 54.8542 315.373C61.7102 324.48 66.1362 336.124 66.1362 350.162V379.248ZM28.8282 309.339C28.8282 308.833 28.5173 308.462 28.1472 308.362C25.3489 307.601 22.6725 307.407 20.441 308.131C16.8791 309.287 13.6083 313.054 13.6083 323.898C13.6083 323.898 13.6083 345.427 13.6083 345.897C13.6083 346.366 14.0306 346.451 14.0306 346.451C18.7693 347.938 22.0826 347.677 24.295 346.563C27.3181 345.04 28.7788 341.679 28.7788 337.278L28.8282 309.339ZM55.0529 344.115C54.9533 333.545 51.7396 326.658 48.2562 322.031C46.0511 319.102 43.4071 316.64 40.6374 314.615C40.2822 314.356 39.9118 314.332 39.9118 314.881L39.8624 342.835C39.8631 347.239 41.3232 352.055 44.3481 356.608C46.5837 359.973 49.9436 363.592 54.7651 366.875C54.8605 366.94 55.0529 366.957 55.0529 366.691L55.0529 344.115Z" fill="white"/>
<path d="M8.1146 382.041C5.05401 380.51 2.57292 376.496 2.57292 373.074C2.57292 369.652 5.05402 368.119 8.11461 369.649L60.5627 395.873C63.6233 397.403 66.1044 401.418 66.1044 404.84C66.1044 408.262 63.6233 409.795 60.5627 408.265L8.1146 382.041Z" fill="white"/>
<path d="M8.1146 496.201C5.05401 494.671 2.57292 490.657 2.57292 487.235C2.57292 483.813 5.05402 482.28 8.11461 483.81L60.5627 509.721C63.6233 511.251 66.1044 515.265 66.1044 518.687C66.1044 522.109 63.6233 523.642 60.5627 522.112L8.1146 496.201Z" fill="white"/>
<path d="M34.3174 38.466C30.5073 36.5609 27.4185 31.5632 27.4185 27.3033C27.4185 23.0434 30.5073 21.1345 34.3174 23.0396C38.1276 24.9447 41.2163 29.9423 41.2163 34.2022C41.2163 38.4621 38.1276 40.371 34.3174 38.466Z" stroke="#0B00B5" stroke-width="1.87122" stroke-linecap="square"/>
<path d="M34.3234 191.31C46.5265 197.412 56.4191 191.298 56.4191 177.654C56.4191 164.011 46.5265 148.004 34.3234 141.903C22.1204 135.801 12.2278 141.915 12.2278 155.559C12.2278 169.202 22.1204 185.209 34.3234 191.31ZM34.3234 203.935C15.8838 194.716 0.935546 170.529 0.935547 149.913C0.935548 129.296 15.8838 120.058 34.3234 129.278C52.7631 138.498 67.7113 162.684 67.7113 183.301C67.7113 203.917 52.763 213.155 34.3234 203.935Z" stroke="#0B00B5" stroke-width="1.87122" stroke-linecap="square"/>
<path d="M60.5472 64.1331C63.6078 65.6634 66.0889 69.6779 66.0889 73.0997C66.0889 76.5216 63.6078 78.055 60.5472 76.5247L39.7989 66.1505L39.7989 88.1337C39.7989 99.0043 43.0626 105.972 46.5902 110.614C50.44 115.68 55.6372 119.336 60.5472 121.791C63.6078 123.321 66.0889 127.336 66.0889 130.758C66.0889 134.18 63.6078 135.713 60.5472 134.183C54.581 131.2 46.633 126.011 40.0568 117.357C34.3602 109.861 30.3386 100.628 29.1101 89.7189C20.219 87.8616 13.6285 93.6974 13.6284 104.527C13.6284 107.949 11.1474 109.483 8.08676 107.952C5.02618 106.422 2.54508 102.408 2.54508 98.9858C2.54513 81.5303 13.7857 72.4364 28.7155 76.9396V60.6088L8.08677 50.2945C5.02618 48.7642 2.54509 44.7497 2.54509 41.3278C2.54509 37.906 5.02618 36.3726 8.08677 37.9029L60.5472 64.1331Z" stroke="#0B00B5" stroke-width="1.87122" stroke-linecap="square"/>
<path d="M8.06639 202.229C5.00581 200.698 2.52471 202.232 2.52471 205.654C2.52471 209.075 5.00581 213.09 8.0664 214.62C8.0664 214.62 36.5383 228.856 54.7817 237.978C54.9433 238.059 55.0527 238.189 55.0527 238.406C55.0527 247.341 55.0527 261.286 55.0527 261.286C55.0527 272.163 51.7955 275.872 48.282 276.99C44.4489 278.21 39.2742 276.68 34.3829 274.234L8.0664 261.076C5.00582 259.545 2.52471 261.079 2.52471 264.501C2.52471 267.922 5.00581 271.937 8.0664 273.467L34.3829 286.625C40.3354 289.602 48.2663 292.351 54.828 290.262C61.7092 288.072 66.136 280.883 66.136 266.827V238.661C66.136 234.575 63.1738 229.782 59.5196 227.955L8.06639 202.229Z" stroke="#0B00B5" stroke-width="1.87122" stroke-linecap="square"/>
<path d="M8.07458 397.286C5.01399 395.756 2.5329 397.289 2.5329 400.711C2.5329 404.133 5.014 408.147 8.07458 409.678C8.07458 409.678 36.5464 423.914 54.7899 433.035C54.9514 433.116 55.0609 433.247 55.0609 433.464C55.0609 442.399 55.0609 456.343 55.0609 456.343C55.0609 467.221 51.8037 470.929 48.2902 472.048C44.4571 473.268 39.2824 471.737 34.3911 469.291L8.07459 456.133C5.014 454.603 2.53289 456.136 2.53289 459.558C2.53289 462.98 5.01399 466.994 8.07458 468.525L34.3911 481.683C40.3436 484.659 48.2745 487.409 54.8361 485.32C61.7174 483.13 66.1442 475.94 66.1442 461.885V433.718C66.1442 429.633 63.182 424.84 59.5278 423.013C39.4341 412.966 28.1683 407.333 8.07458 397.286Z" stroke="#0B00B5" stroke-width="1.87122" stroke-linecap="square"/>
<path d="M66.1362 379.248C66.1362 382.67 63.6551 384.201 60.5945 382.67C49.4155 377.081 42.4001 370.339 36.938 362.118C36.086 360.836 35.2394 359.399 34.59 358.244C34.4488 357.993 34.1833 357.853 34.0406 357.969C33.3283 358.55 32.5482 359.058 31.6989 359.486C26.1515 362.28 18.1521 361.42 8.06658 356.378C5.00594 354.847 2.52489 350.832 2.52489 347.411L2.52489 318.356C2.52489 304.305 6.98186 297.102 13.8629 294.869C20.4353 292.736 28.3843 295.422 34.3831 298.422L34.9503 298.709C40.869 301.749 48.5077 306.943 54.8542 315.373C61.7102 324.48 66.1362 336.124 66.1362 350.162V379.248ZM28.8282 309.339C28.8282 308.833 28.5173 308.462 28.1472 308.362C25.3489 307.601 22.6725 307.407 20.441 308.131C16.8791 309.287 13.6083 313.054 13.6083 323.898C13.6083 323.898 13.6083 345.427 13.6083 345.897C13.6083 346.366 14.0306 346.451 14.0306 346.451C18.7693 347.938 22.0826 347.677 24.295 346.563C27.3181 345.04 28.7788 341.679 28.7788 337.278L28.8282 309.339ZM55.0529 344.115C54.9533 333.545 51.7396 326.658 48.2562 322.031C46.0511 319.102 43.4071 316.64 40.6374 314.615C40.2822 314.356 39.9118 314.332 39.9118 314.881L39.8624 342.835C39.8631 347.239 41.3232 352.055 44.3481 356.608C46.5837 359.973 49.9436 363.592 54.7651 366.875C54.8605 366.94 55.0529 366.957 55.0529 366.691L55.0529 344.115Z" stroke="#0B00B5" stroke-width="1.87122" stroke-linecap="square"/>
<path d="M8.1146 382.041C5.05401 380.51 2.57292 376.496 2.57292 373.074C2.57292 369.652 5.05402 368.119 8.11461 369.649L60.5627 395.873C63.6233 397.403 66.1044 401.418 66.1044 404.84C66.1044 408.262 63.6233 409.795 60.5627 408.265L8.1146 382.041Z" stroke="#0B00B5" stroke-width="1.87122" stroke-linecap="square"/>
<path d="M8.1146 496.201C5.05401 494.671 2.57292 490.657 2.57292 487.235C2.57292 483.813 5.05402 482.28 8.11461 483.81L60.5627 509.721C63.6233 511.251 66.1044 515.265 66.1044 518.687C66.1044 522.109 63.6233 523.642 60.5627 522.112L8.1146 496.201Z" stroke="#0B00B5" stroke-width="1.87122" stroke-linecap="square"/>
</svg>
