<svg xmlns="http://www.w3.org/2000/svg" fill="none" viewBox="0 0 1429 221" height="221" width="1429">
<path fill="#0B00B5" d="M46.3628 110.035C46.3628 122.59 36.1852 132.767 23.6306 132.767C11.076 132.767 0.898437 122.59 0.898438 110.035C0.898438 97.4803 11.076 87.3027 23.6306 87.3027C36.1852 87.3027 46.3628 97.4803 46.3628 110.035Z"></path>
<path fill="#0B00B5" d="M491.813 110.015C491.813 69.8049 459.217 37.2085 419.007 37.2085C378.797 37.2085 346.201 69.8049 346.201 110.015C346.201 150.224 378.797 182.821 419.007 182.821C459.217 182.821 491.813 150.224 491.813 110.015ZM529.021 110.015C529.021 170.774 479.766 220.029 419.007 220.029C358.247 220.029 308.992 170.774 308.992 110.015C308.992 49.2552 358.247 0 419.007 0C479.766 0 529.021 49.2552 529.021 110.015Z"></path>
<path fill="#0B00B5" d="M78.3594 23.6058C78.3594 13.521 86.5347 5.3457 96.6195 5.3457C106.704 5.3457 114.88 13.521 114.88 23.6058V91.9725H179.668C211.706 91.9725 227.432 81.2184 235.914 69.5949C245.171 56.9097 248.288 39.7845 248.288 23.6058C248.288 13.521 256.463 5.3457 266.548 5.3457C276.633 5.3457 284.808 13.521 284.808 23.6058C284.808 43.2648 281.227 69.4538 265.415 91.1225C251.718 109.893 230.431 123.145 200.091 127.193C207.719 156.489 234.629 178.205 266.548 178.205C276.633 178.205 284.808 186.381 284.808 196.465C284.808 206.55 276.633 214.726 266.548 214.726C215.103 214.725 171.738 177.687 163.009 128.493H114.88V196.465C114.88 206.55 106.704 214.726 96.6195 214.726C86.5347 214.726 78.3594 206.55 78.3594 196.465V23.6058Z"></path>
<path fill="#0B00B5" d="M562.688 196.534C562.688 206.618 570.863 214.794 580.948 214.794C591.032 214.794 599.208 206.618 599.208 196.534C599.208 196.534 599.208 102.718 599.208 42.6044C599.208 42.0722 599.432 41.7116 600.071 41.7116C626.404 41.7116 667.501 41.7116 667.501 41.7116C699.56 41.7116 715.288 52.444 723.762 64.0213C733.006 76.6516 736.12 93.7025 736.12 109.819V196.534C736.12 206.618 744.296 214.794 754.38 214.794C764.465 214.794 772.641 206.618 772.641 196.534V109.819C772.641 90.2057 769.056 64.073 753.232 42.4521C736.636 19.7781 708.925 5.19143 667.501 5.19141L584.489 5.19141C572.448 5.19141 562.688 14.9522 562.688 26.9928V196.534Z"></path>
<path fill="#0B00B5" d="M1137.54 196.506C1137.54 206.591 1145.71 214.766 1155.8 214.766C1165.88 214.766 1174.06 206.591 1174.06 196.506C1174.06 196.506 1174.06 102.69 1174.06 42.5771C1174.06 42.0448 1174.28 41.6843 1174.92 41.6843C1201.26 41.6843 1242.35 41.6843 1242.35 41.6843C1274.41 41.6843 1290.14 52.4167 1298.61 63.994C1307.86 76.6243 1310.97 93.6752 1310.97 109.792V196.506C1310.97 206.591 1319.15 214.766 1329.23 214.766C1339.32 214.766 1347.49 206.591 1347.49 196.506V109.792C1347.49 90.1783 1343.91 64.0457 1328.08 42.4247C1311.49 19.7508 1283.78 5.16409 1242.35 5.16406L1159.34 5.16406C1147.3 5.16406 1137.54 14.9249 1137.54 26.9654V196.506Z"></path>
<path fill="#0B00B5" d="M998.824 5.19141C1008.91 5.19141 1017.08 13.3667 1017.08 23.4515C1017.08 60.2869 1007.55 83.403 991.366 101.401C988.842 104.208 985.857 106.998 983.409 109.138C982.877 109.603 982.856 110.478 983.409 110.948C986.17 113.295 988.817 115.865 991.329 118.664C1007.74 136.943 1016.99 163.301 1016.99 196.534C1016.99 206.619 1008.82 214.794 998.731 214.794H913.103C871.692 214.794 843.896 200.108 827.175 177.435C811.204 155.778 807.406 129.586 807.406 109.819L807.417 107.95C807.655 88.448 811.706 63.2781 827.199 42.3663C843.936 19.7755 871.732 5.1914 913.103 5.19141H998.824ZM847.767 128.123C846.277 128.123 845.641 129.148 845.89 130.367C847.774 139.588 851.145 148.407 856.567 155.759C865.222 167.496 881.146 178.274 913.103 178.274C913.103 178.274 976.553 178.274 977.937 178.274C979.321 178.274 978.949 176.882 978.949 176.882C976.349 161.268 970.698 150.35 964.153 143.06C955.211 133.099 943.153 128.286 930.181 128.286L847.767 128.123ZM911.615 41.7116C880.61 42.0395 865.047 52.6289 856.543 64.1071C851.16 71.3728 847.801 80.0849 845.916 89.2112C845.674 90.3816 846.149 91.602 847.767 91.602L930.226 91.7647C943.204 91.7626 955.248 86.9515 964.208 76.9844C970.831 69.6179 976.545 58.5467 979.115 42.6597C979.166 42.3455 978.932 41.7116 978.15 41.7116H911.615Z"></path>
<path fill="#0B00B5" d="M1092.55 196.374C1092.55 206.459 1084.38 214.634 1074.29 214.634C1064.21 214.634 1056.03 206.459 1056.03 196.374L1056.03 23.555C1056.03 13.4702 1064.21 5.29492 1074.29 5.29492C1084.38 5.29492 1092.55 13.4703 1092.55 23.555L1092.55 196.374Z"></path>
<path fill="#0B00B5" d="M1429 196.374C1429 206.459 1420.83 214.634 1410.74 214.634C1400.66 214.634 1392.48 206.459 1392.48 196.374L1392.48 23.555C1392.48 13.4702 1400.66 5.29492 1410.74 5.29492C1420.83 5.29492 1429 13.4703 1429 23.555L1429 196.374Z"></path>
</svg>
